<mxfile host="app.diagrams.net" modified="2022-06-14T14:50:39.237Z" agent="5.0 (X11)" etag="jnfqJmRQnspxn1YM5YMT" version="19.0.3" type="github">
  <diagram id="M_MdMV8WgtKD0TWy-Q0t" name="Page-1">
    <mxGraphModel dx="1539" dy="973" grid="1" gridSize="10" guides="1" tooltips="1" connect="1" arrows="1" fold="1" page="1" pageScale="1" pageWidth="1169" pageHeight="827" math="0" shadow="0">
      <root>
        <mxCell id="0" />
        <mxCell id="1" parent="0" />
        <mxCell id="97mOlhuxyz5lRc0f5xVJ-18" value="" style="rounded=0;whiteSpace=wrap;html=1;" vertex="1" parent="1">
          <mxGeometry x="30" y="200" width="220" height="500" as="geometry" />
        </mxCell>
        <mxCell id="97mOlhuxyz5lRc0f5xVJ-16" value="" style="rounded=0;whiteSpace=wrap;html=1;" vertex="1" parent="1">
          <mxGeometry x="610" y="100" width="250" height="290" as="geometry" />
        </mxCell>
        <mxCell id="97mOlhuxyz5lRc0f5xVJ-1" value="" style="endArrow=none;dashed=1;html=1;dashPattern=1 3;strokeWidth=2;rounded=0;" edge="1" parent="1">
          <mxGeometry width="50" height="50" relative="1" as="geometry">
            <mxPoint x="330" y="779" as="sourcePoint" />
            <mxPoint x="330" y="49" as="targetPoint" />
          </mxGeometry>
        </mxCell>
        <mxCell id="97mOlhuxyz5lRc0f5xVJ-2" value="" style="endArrow=none;dashed=1;html=1;dashPattern=1 3;strokeWidth=2;rounded=0;" edge="1" parent="1">
          <mxGeometry width="50" height="50" relative="1" as="geometry">
            <mxPoint x="890" y="770" as="sourcePoint" />
            <mxPoint x="890" y="40" as="targetPoint" />
          </mxGeometry>
        </mxCell>
        <mxCell id="97mOlhuxyz5lRc0f5xVJ-3" value="app" style="text;html=1;strokeColor=none;fillColor=none;align=center;verticalAlign=middle;whiteSpace=wrap;rounded=0;" vertex="1" parent="1">
          <mxGeometry x="100" y="225" width="60" height="30" as="geometry" />
        </mxCell>
        <mxCell id="97mOlhuxyz5lRc0f5xVJ-5" value="" style="endArrow=none;dashed=1;html=1;dashPattern=1 3;strokeWidth=2;rounded=0;" edge="1" parent="1">
          <mxGeometry width="50" height="50" relative="1" as="geometry">
            <mxPoint x="540" y="779" as="sourcePoint" />
            <mxPoint x="540" y="49" as="targetPoint" />
          </mxGeometry>
        </mxCell>
        <mxCell id="97mOlhuxyz5lRc0f5xVJ-6" value="factory" style="text;html=1;strokeColor=none;fillColor=none;align=center;verticalAlign=middle;whiteSpace=wrap;rounded=0;" vertex="1" parent="1">
          <mxGeometry x="440" y="25" width="60" height="40" as="geometry" />
        </mxCell>
        <mxCell id="97mOlhuxyz5lRc0f5xVJ-7" value="model" style="text;html=1;strokeColor=none;fillColor=none;align=center;verticalAlign=middle;whiteSpace=wrap;rounded=0;" vertex="1" parent="1">
          <mxGeometry x="720" y="30" width="60" height="30" as="geometry" />
        </mxCell>
        <mxCell id="97mOlhuxyz5lRc0f5xVJ-8" value="template" style="text;html=1;strokeColor=none;fillColor=none;align=center;verticalAlign=middle;whiteSpace=wrap;rounded=0;" vertex="1" parent="1">
          <mxGeometry x="1000" y="30" width="60" height="30" as="geometry" />
        </mxCell>
        <mxCell id="97mOlhuxyz5lRc0f5xVJ-13" style="edgeStyle=orthogonalEdgeStyle;rounded=0;orthogonalLoop=1;jettySize=auto;html=1;entryX=0;entryY=0.5;entryDx=0;entryDy=0;" edge="1" parent="1" source="97mOlhuxyz5lRc0f5xVJ-9" target="97mOlhuxyz5lRc0f5xVJ-11">
          <mxGeometry relative="1" as="geometry" />
        </mxCell>
        <mxCell id="97mOlhuxyz5lRc0f5xVJ-14" style="edgeStyle=orthogonalEdgeStyle;rounded=0;orthogonalLoop=1;jettySize=auto;html=1;entryX=0;entryY=0.5;entryDx=0;entryDy=0;" edge="1" parent="1" source="97mOlhuxyz5lRc0f5xVJ-9" target="97mOlhuxyz5lRc0f5xVJ-12">
          <mxGeometry relative="1" as="geometry" />
        </mxCell>
        <mxCell id="97mOlhuxyz5lRc0f5xVJ-9" value="photoFactory" style="rounded=0;whiteSpace=wrap;html=1;" vertex="1" parent="1">
          <mxGeometry x="340" y="200" width="140" height="80" as="geometry" />
        </mxCell>
        <mxCell id="97mOlhuxyz5lRc0f5xVJ-10" value="Media" style="rounded=0;whiteSpace=wrap;html=1;" vertex="1" parent="1">
          <mxGeometry x="675" y="90" width="120" height="60" as="geometry" />
        </mxCell>
        <mxCell id="97mOlhuxyz5lRc0f5xVJ-24" style="edgeStyle=orthogonalEdgeStyle;rounded=0;orthogonalLoop=1;jettySize=auto;html=1;entryX=1.002;entryY=0.531;entryDx=0;entryDy=0;entryPerimeter=0;" edge="1" parent="1" source="97mOlhuxyz5lRc0f5xVJ-11" target="97mOlhuxyz5lRc0f5xVJ-18">
          <mxGeometry relative="1" as="geometry">
            <Array as="points">
              <mxPoint x="830" y="240" />
              <mxPoint x="830" y="462" />
              <mxPoint x="250" y="462" />
            </Array>
          </mxGeometry>
        </mxCell>
        <mxCell id="97mOlhuxyz5lRc0f5xVJ-11" value="CardPhoto" style="rounded=0;whiteSpace=wrap;html=1;" vertex="1" parent="1">
          <mxGeometry x="675" y="210" width="120" height="60" as="geometry" />
        </mxCell>
        <mxCell id="97mOlhuxyz5lRc0f5xVJ-25" style="edgeStyle=orthogonalEdgeStyle;rounded=0;orthogonalLoop=1;jettySize=auto;html=1;entryX=1.008;entryY=0.537;entryDx=0;entryDy=0;entryPerimeter=0;" edge="1" parent="1" source="97mOlhuxyz5lRc0f5xVJ-12" target="97mOlhuxyz5lRc0f5xVJ-18">
          <mxGeometry relative="1" as="geometry">
            <Array as="points">
              <mxPoint x="830" y="325" />
              <mxPoint x="830" y="462" />
              <mxPoint x="252" y="462" />
            </Array>
          </mxGeometry>
        </mxCell>
        <mxCell id="97mOlhuxyz5lRc0f5xVJ-12" value="CardVideo" style="rounded=0;whiteSpace=wrap;html=1;" vertex="1" parent="1">
          <mxGeometry x="675" y="295" width="120" height="60" as="geometry" />
        </mxCell>
        <mxCell id="97mOlhuxyz5lRc0f5xVJ-28" style="edgeStyle=orthogonalEdgeStyle;rounded=0;orthogonalLoop=1;jettySize=auto;html=1;entryX=1.008;entryY=0.95;entryDx=0;entryDy=0;entryPerimeter=0;" edge="1" parent="1" source="97mOlhuxyz5lRc0f5xVJ-17" target="97mOlhuxyz5lRc0f5xVJ-18">
          <mxGeometry relative="1" as="geometry">
            <Array as="points">
              <mxPoint x="1040" y="675" />
            </Array>
          </mxGeometry>
        </mxCell>
        <mxCell id="97mOlhuxyz5lRc0f5xVJ-17" value="createCard" style="rounded=0;whiteSpace=wrap;html=1;" vertex="1" parent="1">
          <mxGeometry x="980" y="570" width="120" height="60" as="geometry" />
        </mxCell>
        <mxCell id="97mOlhuxyz5lRc0f5xVJ-20" style="edgeStyle=orthogonalEdgeStyle;rounded=0;orthogonalLoop=1;jettySize=auto;html=1;entryX=0;entryY=0.5;entryDx=0;entryDy=0;exitX=1.008;exitY=0.353;exitDx=0;exitDy=0;exitPerimeter=0;" edge="1" parent="1" source="97mOlhuxyz5lRc0f5xVJ-18" target="97mOlhuxyz5lRc0f5xVJ-9">
          <mxGeometry relative="1" as="geometry" />
        </mxCell>
        <mxCell id="97mOlhuxyz5lRc0f5xVJ-27" style="edgeStyle=orthogonalEdgeStyle;rounded=0;orthogonalLoop=1;jettySize=auto;html=1;entryX=0;entryY=0.5;entryDx=0;entryDy=0;exitX=1.02;exitY=0.801;exitDx=0;exitDy=0;exitPerimeter=0;" edge="1" parent="1" source="97mOlhuxyz5lRc0f5xVJ-18" target="97mOlhuxyz5lRc0f5xVJ-17">
          <mxGeometry relative="1" as="geometry">
            <Array as="points" />
          </mxGeometry>
        </mxCell>
      </root>
    </mxGraphModel>
  </diagram>
</mxfile>
